<svg xmlns="http://www.w3.org/2000/svg" xml:lang="en" height="343.84103884177654pt" width="254.04405819889254pt" viewBox="-130.5780290994463 -244.89999999999998 254.04405819889254 343.84103884177654"><rect x="-130.5780290994463" y="-244.89999999999998" width="254.04405819889254" height="343.84103884177654" fill="white" /><circle cx="3.3065463576978533e-15" cy="-54.0" r="18.0" style="stroke:black;fill:none;stroke-width:2.0;stroke-dasharray:-;" /><path d="M 0.0,-0.0 L 2.204364238465236e-15,-36.0 L 2.204364238465236e-15,-36.0 M 4.408728476930472e-15,-72.0 L 4.408728476930472e-15,-72.0 L 6.613092715395707e-15,-108.0" style="stroke:black;fill:none;stroke-width:2.0;stroke-dasharray:-;stroke-linecap:round;stroke-linejoin:round;" /><path d="M 3.3065463576978537e-15,-54.0 L 3.857637417314163e-15,-63.0" style="stroke:black;fill:none;stroke-width:2.0;stroke-dasharray:-;stroke-linecap:round;stroke-linejoin:round;" /><path d="M 3.0770798280168722e-15 -47.0 L -2.6999999999999953 -54.0 L 2.700000000000004 -54.0 Z" style="stroke:black;fill:black;stroke-linecap:butt;stroke-linejoin:miter;" /><path d="M 6.613092715395707e-15,-108.0 L 6.943747351165492e-15,-113.39999999999999 L 7.274401986935278e-15,-118.8" style="stroke:black;fill:none;stroke-width:2.0;stroke-dasharray:-;stroke-linecap:round;stroke-linejoin:round;" /><path d="M 7.274401986935278e-15,-118.8 L 9.478766225400512e-15,-154.79999999999998 L -8.999999999999991,-157.79999999999998 L 9.00000000000001,-163.79999999999998 L -8.99999999999999,-169.8 L 9.000000000000012,-175.79999999999998 L -8.99999999999999,-181.79999999999998 L 9.000000000000012,-187.8 L 1.168313046386575e-14,-190.79999999999998 L 1.3887494702330986e-14,-226.79999999999998" style="stroke:black;fill:none;stroke-width:2.0;stroke-dasharray:-;stroke-linecap:round;stroke-linejoin:round;" /><path d="M 1.3887494702330986e-14,-226.79999999999998 L 1.421814933810077e-14,-232.20000000000002 L 1.4548803973870556e-14,-237.6" style="stroke:black;fill:none;stroke-width:2.0;stroke-dasharray:-;stroke-linecap:round;stroke-linejoin:round;" /><path d="M 6.613092715395707e-15,-108.0 L -4.676537180435962,-110.7 L -9.353074360871933,-113.39999999999999" style="stroke:black;fill:none;stroke-width:2.0;stroke-dasharray:-;stroke-linecap:round;stroke-linejoin:round;" /><path d="M -9.353074360871933,-113.39999999999999 L -40.52998889711172,-131.4 L -47.628065108465044,-125.10577136594004 L -43.824217531171676,-143.69422863405995 L -58.0203699538783,-131.10577136594003 L -54.21652237658494,-149.69422863405993 L -68.41267479929158,-137.10577136594003 L -64.6088272219982,-155.69422863405993 L -71.70690343335153,-149.39999999999998 L -102.8838179695913,-167.39999999999998" style="stroke:black;fill:none;stroke-width:2.0;stroke-dasharray:-;stroke-linecap:round;stroke-linejoin:round;" /><path d="M -102.8838179695913,-167.39999999999998 L -107.56035515002729,-170.1 L -112.23689233046325,-172.79999999999998" style="stroke:black;fill:none;stroke-width:2.0;stroke-dasharray:-;stroke-linecap:round;stroke-linejoin:round;" /><path d="M 6.613092715395707e-15,-108.0 L 4.676537180435976,-110.7 L 9.353074360871945,-113.39999999999999" style="stroke:black;fill:none;stroke-width:2.0;stroke-dasharray:-;stroke-linecap:round;stroke-linejoin:round;" /><path d="M 9.353074360871945,-113.39999999999999 L 40.52998889711174,-131.4 L 38.62806510846505,-140.69422863405995 L 52.82421753117168,-128.10577136594003 L 49.020369953878316,-146.69422863405993 L 63.21652237658495,-134.10577136594003 L 59.41267479929159,-152.69422863405995 L 73.60882722199821,-140.10577136594003 L 71.70690343335153,-149.39999999999998 L 102.88381796959132,-167.39999999999998" style="stroke:black;fill:none;stroke-width:2.0;stroke-dasharray:-;stroke-linecap:round;stroke-linejoin:round;" /><path d="M 102.88381796959132,-167.39999999999998 L 107.5603551500273,-170.1 L 112.23689233046326,-172.79999999999998" style="stroke:black;fill:none;stroke-width:2.0;stroke-dasharray:-;stroke-linecap:round;stroke-linejoin:round;" /><path d="M 0.0,-0.0 L -3.8183766184073575,3.818376618407356 L -7.636753236814715,7.636753236814712" style="stroke:black;fill:none;stroke-width:2.0;stroke-dasharray:-;stroke-linecap:round;stroke-linejoin:round;" /><path d="M -7.636753236814715,7.636753236814712 L -33.09259735953043,33.09259735953042 L -28.849956672411146,41.577878733769 L -45.82051942088829,33.09259735953042 L -37.33523804664972,50.06316010800756 L -54.30580079512686,41.57787873376898 L -45.82051942088829,58.54844148224613 L -62.79108216936543,50.06316010800755 L -58.54844148224615,58.54844148224613 L -84.00428560496185,84.00428560496184" style="stroke:black;fill:none;stroke-width:2.0;stroke-dasharray:-;stroke-linecap:round;stroke-linejoin:round;" /><path d="M -84.00428560496185,84.00428560496184 L -87.82266222336922,87.82266222336919 L -91.64103884177658,91.64103884177655" style="stroke:black;fill:none;stroke-width:2.0;stroke-dasharray:-;stroke-linecap:round;stroke-linejoin:round;" /><path d="M 0.0,-0.0 L 3.8183766184073558,3.8183766184073575 L 7.6367532368147115,7.636753236814715" style="stroke:black;fill:none;stroke-width:2.0;stroke-dasharray:-;stroke-linecap:round;stroke-linejoin:round;" /><path d="M 7.6367532368147115,7.636753236814715 L 33.092597359530416,33.09259735953043 L 41.57787873376898,28.849956672411146 L 33.09259735953041,45.82051942088829 L 50.06316010800756,37.33523804664972 L 41.577878733768976,54.305800795126856 L 58.54844148224613,45.820519420888296 L 50.063160108007544,62.791082169365424 L 58.548441482246126,58.54844148224615 L 84.00428560496182,84.00428560496185" style="stroke:black;fill:none;stroke-width:2.0;stroke-dasharray:-;stroke-linecap:round;stroke-linejoin:round;" /><path d="M 84.00428560496182,84.00428560496185 L 87.82266222336918,87.82266222336922 L 91.64103884177653,91.64103884177658" style="stroke:black;fill:none;stroke-width:2.0;stroke-dasharray:-;stroke-linecap:round;stroke-linejoin:round;" /><g><g><g><symbol id="STIXTwoMathRegular_4244" viewBox="0 -31.524 3.756 51.216"><path d="M 3.756 0 L 3.756 0 L 2.76 0 L 2.76 -6.348 L 1.212 -6.348 L 1.212 -6.996 Q 1.848 -7.092 2.256 -7.23 Q 2.664 -7.368 3 -7.56 L 3.756 -7.56 Z " /></symbol><use href="#STIXTwoMathRegular_4244" x="-45.624" y="-86.263" width="4.382" height="59.752" fill="black" /><symbol id="STIXTwoMathRegular_1052" viewBox="0 -31.524 2.196 51.216"><path d="M 2.196 -0.6 L 2.196 -0.6 Q 2.196 -0.324 2.004 -0.114 Q 1.812 0.096 1.452 0.096 Q 1.092 0.096 0.918 -0.108 Q 0.744 -0.312 0.744 -0.612 Q 0.744 -0.924 0.936 -1.146 Q 1.128 -1.368 1.464 -1.368 Q 1.812 -1.368 2.004 -1.14 Q 2.196 -0.912 2.196 -0.6 Z " /></symbol><use href="#STIXTwoMathRegular_1052" x="-38.512" y="-86.263" width="2.562" height="59.752" fill="black" /><symbol id="STIXTwoMathRegular_4248" viewBox="0 -31.524 5.508 51.216"><path d="M 2.868 0.144 L 2.868 0.144 Q 1.932 0.144 1.32 -0.18 Q 0.708 -0.504 0.3 -0.888 L 0.804 -1.548 Q 1.152 -1.212 1.614 -0.954 Q 2.076 -0.696 2.772 -0.696 Q 3.48 -0.696 3.978 -1.158 Q 4.476 -1.62 4.476 -2.4 Q 4.476 -3.18 4.026 -3.606 Q 3.576 -4.032 2.832 -4.032 Q 2.424 -4.032 2.13 -3.918 Q 1.836 -3.804 1.488 -3.576 L 0.936 -3.924 L 1.2 -7.56 L 5.112 -7.56 L 5.112 -6.684 L 2.088 -6.684 L 1.884 -4.488 Q 2.16 -4.632 2.436 -4.716 Q 2.712 -4.8 3.084 -4.8 Q 3.756 -4.8 4.302 -4.548 Q 4.848 -4.296 5.178 -3.774 Q 5.508 -3.252 5.508 -2.424 Q 5.508 -1.608 5.136 -1.032 Q 4.764 -0.456 4.158 -0.156 Q 3.552 0.144 2.868 0.144 Z " /></symbol><use href="#STIXTwoMathRegular_4248" x="-35.082" y="-86.263" width="6.426" height="59.752" fill="black" /><symbol id="STIXTwoMathRegular_3659" viewBox="0 -31.524 6.648 51.216"><path d="M 0.048 0 L 0.048 0 L 2.772 -7.884 L 3.924 -7.884 L 6.648 0 L 5.556 0 L 4.8 -2.388 L 1.86 -2.388 L 1.092 0 Z M 2.124 -3.192 L 2.124 -3.192 L 4.548 -3.192 L 4.164 -4.392 Q 3.936 -5.052 3.744 -5.706 Q 3.552 -6.36 3.348 -7.044 L 3.3 -7.044 Q 3.108 -6.36 2.916 -5.706 Q 2.724 -5.052 2.508 -4.392 Z " /></symbol><use href="#STIXTwoMathRegular_3659" x="-27.97" y="-86.263" width="7.756" height="59.752" fill="black" /></g></g></g><circle cx="1.4548803973870556e-14" cy="-237.6" r="2.6999999999999997" style="stroke:black;fill:black;stroke-width:2.0;stroke-dasharray:-;" /><g><g><g><symbol id="STIXTwoMathRegular_3679" viewBox="0 -31.524 6.864 51.216"><path d="M 3.972 0.144 L 3.972 0.144 Q 3.156 0.144 2.496 -0.18 Q 1.836 -0.504 1.458 -1.254 Q 1.08 -2.004 1.08 -3.264 L 1.08 -7.884 L 2.112 -7.884 L 2.112 -3.228 Q 2.112 -2.292 2.358 -1.752 Q 2.604 -1.212 3.024 -0.984 Q 3.444 -0.756 3.972 -0.756 Q 4.512 -0.756 4.944 -0.984 Q 5.376 -1.212 5.628 -1.752 Q 5.88 -2.292 5.88 -3.228 L 5.88 -7.884 L 6.864 -7.884 L 6.864 -3.264 Q 6.864 -2.004 6.486 -1.254 Q 6.108 -0.504 5.454 -0.18 Q 4.8 0.144 3.972 0.144 Z " /></symbol><use href="#STIXTwoMathRegular_3679" x="-31.934" y="-265.813" width="8.008" height="59.752" fill="black" /><symbol id="STIXTwoMathRegular_4244" viewBox="0 -31.524 3.756 51.216"><path d="M 3.756 0 L 3.756 0 L 2.76 0 L 2.76 -6.348 L 1.212 -6.348 L 1.212 -6.996 Q 1.848 -7.092 2.256 -7.23 Q 2.664 -7.368 3 -7.56 L 3.756 -7.56 Z " /></symbol><use href="#STIXTwoMathRegular_4244" x="-22.694" y="-265.813" width="4.382" height="59.752" fill="black" /><symbol id="STIXTwoMathRegular_1052" viewBox="0 -31.524 2.196 51.216"><path d="M 2.196 -0.6 L 2.196 -0.6 Q 2.196 -0.324 2.004 -0.114 Q 1.812 0.096 1.452 0.096 Q 1.092 0.096 0.918 -0.108 Q 0.744 -0.312 0.744 -0.612 Q 0.744 -0.924 0.936 -1.146 Q 1.128 -1.368 1.464 -1.368 Q 1.812 -1.368 2.004 -1.14 Q 2.196 -0.912 2.196 -0.6 Z " /></symbol><use href="#STIXTwoMathRegular_1052" x="-15.582" y="-265.813" width="2.562" height="59.752" fill="black" /><symbol id="STIXTwoMathRegular_4246" viewBox="0 -31.524 5.472 51.216"><path d="M 2.892 0.144 L 2.892 0.144 Q 1.956 0.144 1.332 -0.186 Q 0.708 -0.516 0.324 -0.924 L 0.828 -1.584 Q 1.176 -1.236 1.656 -0.966 Q 2.136 -0.696 2.832 -0.696 Q 3.54 -0.696 3.996 -1.068 Q 4.452 -1.44 4.452 -2.064 Q 4.452 -2.508 4.218 -2.838 Q 3.984 -3.168 3.438 -3.354 Q 2.892 -3.54 1.956 -3.54 L 1.956 -4.296 Q 2.784 -4.296 3.27 -4.482 Q 3.756 -4.668 3.966 -4.986 Q 4.176 -5.304 4.176 -5.688 Q 4.176 -6.24 3.81 -6.558 Q 3.444 -6.876 2.832 -6.876 Q 2.328 -6.876 1.914 -6.666 Q 1.5 -6.456 1.152 -6.108 L 0.612 -6.756 Q 1.068 -7.164 1.62 -7.428 Q 2.172 -7.692 2.868 -7.692 Q 3.888 -7.692 4.542 -7.194 Q 5.196 -6.696 5.196 -5.772 Q 5.196 -5.088 4.806 -4.644 Q 4.416 -4.2 3.78 -3.984 L 3.78 -3.936 Q 4.488 -3.78 4.98 -3.288 Q 5.472 -2.796 5.472 -2.016 Q 5.472 -1.344 5.13 -0.858 Q 4.788 -0.372 4.2 -0.114 Q 3.612 0.144 2.892 0.144 Z " /></symbol><use href="#STIXTwoMathRegular_4246" x="-12.152" y="-265.813" width="6.384" height="59.752" fill="black" /></g></g></g><circle cx="-112.23689233046325" cy="-172.79999999999998" r="2.6999999999999997" style="stroke:black;fill:black;stroke-width:2.0;stroke-dasharray:-;" /><g><g><g><symbol id="STIXTwoMathRegular_3679" viewBox="0 -31.524 6.864 51.216"><path d="M 3.972 0.144 L 3.972 0.144 Q 3.156 0.144 2.496 -0.18 Q 1.836 -0.504 1.458 -1.254 Q 1.08 -2.004 1.08 -3.264 L 1.08 -7.884 L 2.112 -7.884 L 2.112 -3.228 Q 2.112 -2.292 2.358 -1.752 Q 2.604 -1.212 3.024 -0.984 Q 3.444 -0.756 3.972 -0.756 Q 4.512 -0.756 4.944 -0.984 Q 5.376 -1.212 5.628 -1.752 Q 5.88 -2.292 5.88 -3.228 L 5.88 -7.884 L 6.864 -7.884 L 6.864 -3.264 Q 6.864 -2.004 6.486 -1.254 Q 6.108 -0.504 5.454 -0.18 Q 4.8 0.144 3.972 0.144 Z " /></symbol><use href="#STIXTwoMathRegular_3679" x="-105.579" y="-213.177" width="8.008" height="59.752" fill="black" /><symbol id="STIXTwoMathRegular_4244" viewBox="0 -31.524 3.756 51.216"><path d="M 3.756 0 L 3.756 0 L 2.76 0 L 2.76 -6.348 L 1.212 -6.348 L 1.212 -6.996 Q 1.848 -7.092 2.256 -7.23 Q 2.664 -7.368 3 -7.56 L 3.756 -7.56 Z " /></symbol><use href="#STIXTwoMathRegular_4244" x="-96.339" y="-213.177" width="4.382" height="59.752" fill="black" /><symbol id="STIXTwoMathRegular_1052" viewBox="0 -31.524 2.196 51.216"><path d="M 2.196 -0.6 L 2.196 -0.6 Q 2.196 -0.324 2.004 -0.114 Q 1.812 0.096 1.452 0.096 Q 1.092 0.096 0.918 -0.108 Q 0.744 -0.312 0.744 -0.612 Q 0.744 -0.924 0.936 -1.146 Q 1.128 -1.368 1.464 -1.368 Q 1.812 -1.368 2.004 -1.14 Q 2.196 -0.912 2.196 -0.6 Z " /></symbol><use href="#STIXTwoMathRegular_1052" x="-89.227" y="-213.177" width="2.562" height="59.752" fill="black" /><use href="#STIXTwoMathRegular_4244" x="-85.797" y="-213.177" width="4.382" height="59.752" fill="black" /><symbol id="STIXTwoMathRegular_4245" viewBox="0 -31.524 5.544 51.216"><path d="M 0.492 0 L 0.492 0 L 0.492 -0.6 Q 1.668 -1.728 2.484 -2.58 Q 3.3 -3.432 3.732 -4.116 Q 4.164 -4.8 4.164 -5.412 Q 4.164 -6.06 3.798 -6.468 Q 3.432 -6.876 2.688 -6.876 Q 2.196 -6.876 1.782 -6.618 Q 1.368 -6.36 1.02 -5.976 L 0.444 -6.54 Q 0.936 -7.068 1.494 -7.38 Q 2.052 -7.692 2.808 -7.692 Q 3.9 -7.692 4.53 -7.08 Q 5.16 -6.468 5.16 -5.46 Q 5.16 -4.764 4.746 -4.044 Q 4.332 -3.324 3.612 -2.526 Q 2.892 -1.728 1.968 -0.804 Q 2.28 -0.828 2.628 -0.846 Q 2.976 -0.864 3.276 -0.864 L 5.544 -0.864 L 5.544 0 Z " /></symbol><use href="#STIXTwoMathRegular_4245" x="-78.685" y="-213.177" width="6.468" height="59.752" fill="black" /></g></g></g><circle cx="112.23689233046326" cy="-172.79999999999998" r="2.6999999999999997" style="stroke:black;fill:black;stroke-width:2.0;stroke-dasharray:-;" /><g><g><g><symbol id="STIXTwoMathRegular_3679" viewBox="0 -31.524 6.864 51.216"><path d="M 3.972 0.144 L 3.972 0.144 Q 3.156 0.144 2.496 -0.18 Q 1.836 -0.504 1.458 -1.254 Q 1.08 -2.004 1.08 -3.264 L 1.08 -7.884 L 2.112 -7.884 L 2.112 -3.228 Q 2.112 -2.292 2.358 -1.752 Q 2.604 -1.212 3.024 -0.984 Q 3.444 -0.756 3.972 -0.756 Q 4.512 -0.756 4.944 -0.984 Q 5.376 -1.212 5.628 -1.752 Q 5.88 -2.292 5.88 -3.228 L 5.88 -7.884 L 6.864 -7.884 L 6.864 -3.264 Q 6.864 -2.004 6.486 -1.254 Q 6.108 -0.504 5.454 -0.18 Q 4.8 0.144 3.972 0.144 Z " /></symbol><use href="#STIXTwoMathRegular_3679" x="72.833" y="-213.177" width="8.008" height="59.752" fill="black" /><symbol id="STIXTwoMathRegular_4244" viewBox="0 -31.524 3.756 51.216"><path d="M 3.756 0 L 3.756 0 L 2.76 0 L 2.76 -6.348 L 1.212 -6.348 L 1.212 -6.996 Q 1.848 -7.092 2.256 -7.23 Q 2.664 -7.368 3 -7.56 L 3.756 -7.56 Z " /></symbol><use href="#STIXTwoMathRegular_4244" x="82.073" y="-213.177" width="4.382" height="59.752" fill="black" /><symbol id="STIXTwoMathRegular_1052" viewBox="0 -31.524 2.196 51.216"><path d="M 2.196 -0.6 L 2.196 -0.6 Q 2.196 -0.324 2.004 -0.114 Q 1.812 0.096 1.452 0.096 Q 1.092 0.096 0.918 -0.108 Q 0.744 -0.312 0.744 -0.612 Q 0.744 -0.924 0.936 -1.146 Q 1.128 -1.368 1.464 -1.368 Q 1.812 -1.368 2.004 -1.14 Q 2.196 -0.912 2.196 -0.6 Z " /></symbol><use href="#STIXTwoMathRegular_1052" x="89.185" y="-213.177" width="2.562" height="59.752" fill="black" /><symbol id="STIXTwoMathRegular_4245" viewBox="0 -31.524 5.544 51.216"><path d="M 0.492 0 L 0.492 0 L 0.492 -0.6 Q 1.668 -1.728 2.484 -2.58 Q 3.3 -3.432 3.732 -4.116 Q 4.164 -4.8 4.164 -5.412 Q 4.164 -6.06 3.798 -6.468 Q 3.432 -6.876 2.688 -6.876 Q 2.196 -6.876 1.782 -6.618 Q 1.368 -6.36 1.02 -5.976 L 0.444 -6.54 Q 0.936 -7.068 1.494 -7.38 Q 2.052 -7.692 2.808 -7.692 Q 3.9 -7.692 4.53 -7.08 Q 5.16 -6.468 5.16 -5.46 Q 5.16 -4.764 4.746 -4.044 Q 4.332 -3.324 3.612 -2.526 Q 2.892 -1.728 1.968 -0.804 Q 2.28 -0.828 2.628 -0.846 Q 2.976 -0.864 3.276 -0.864 L 5.544 -0.864 L 5.544 0 Z " /></symbol><use href="#STIXTwoMathRegular_4245" x="92.615" y="-213.177" width="6.468" height="59.752" fill="black" /><use href="#STIXTwoMathRegular_4244" x="99.727" y="-213.177" width="4.382" height="59.752" fill="black" /></g></g></g><circle cx="-91.64103884177658" cy="91.64103884177655" r="2.6999999999999997" style="stroke:black;fill:black;stroke-width:2.0;stroke-dasharray:-;" /><g><g><g><symbol id="STIXTwoMathRegular_3679" viewBox="0 -31.524 6.864 51.216"><path d="M 3.972 0.144 L 3.972 0.144 Q 3.156 0.144 2.496 -0.18 Q 1.836 -0.504 1.458 -1.254 Q 1.08 -2.004 1.08 -3.264 L 1.08 -7.884 L 2.112 -7.884 L 2.112 -3.228 Q 2.112 -2.292 2.358 -1.752 Q 2.604 -1.212 3.024 -0.984 Q 3.444 -0.756 3.972 -0.756 Q 4.512 -0.756 4.944 -0.984 Q 5.376 -1.212 5.628 -1.752 Q 5.88 -2.292 5.88 -3.228 L 5.88 -7.884 L 6.864 -7.884 L 6.864 -3.264 Q 6.864 -2.004 6.486 -1.254 Q 6.108 -0.504 5.454 -0.18 Q 4.8 0.144 3.972 0.144 Z " /></symbol><use href="#STIXTwoMathRegular_3679" x="-125.978" y="47.376" width="8.008" height="59.752" fill="black" /><symbol id="STIXTwoMathRegular_4244" viewBox="0 -31.524 3.756 51.216"><path d="M 3.756 0 L 3.756 0 L 2.76 0 L 2.76 -6.348 L 1.212 -6.348 L 1.212 -6.996 Q 1.848 -7.092 2.256 -7.23 Q 2.664 -7.368 3 -7.56 L 3.756 -7.56 Z " /></symbol><use href="#STIXTwoMathRegular_4244" x="-116.738" y="47.376" width="4.382" height="59.752" fill="black" /><symbol id="STIXTwoMathRegular_1052" viewBox="0 -31.524 2.196 51.216"><path d="M 2.196 -0.6 L 2.196 -0.6 Q 2.196 -0.324 2.004 -0.114 Q 1.812 0.096 1.452 0.096 Q 1.092 0.096 0.918 -0.108 Q 0.744 -0.312 0.744 -0.612 Q 0.744 -0.924 0.936 -1.146 Q 1.128 -1.368 1.464 -1.368 Q 1.812 -1.368 2.004 -1.14 Q 2.196 -0.912 2.196 -0.6 Z " /></symbol><use href="#STIXTwoMathRegular_1052" x="-109.626" y="47.376" width="2.562" height="59.752" fill="black" /><use href="#STIXTwoMathRegular_4244" x="-106.196" y="47.376" width="4.382" height="59.752" fill="black" /><symbol id="STIXTwoMathRegular_4248" viewBox="0 -31.524 5.508 51.216"><path d="M 2.868 0.144 L 2.868 0.144 Q 1.932 0.144 1.32 -0.18 Q 0.708 -0.504 0.3 -0.888 L 0.804 -1.548 Q 1.152 -1.212 1.614 -0.954 Q 2.076 -0.696 2.772 -0.696 Q 3.48 -0.696 3.978 -1.158 Q 4.476 -1.62 4.476 -2.4 Q 4.476 -3.18 4.026 -3.606 Q 3.576 -4.032 2.832 -4.032 Q 2.424 -4.032 2.13 -3.918 Q 1.836 -3.804 1.488 -3.576 L 0.936 -3.924 L 1.2 -7.56 L 5.112 -7.56 L 5.112 -6.684 L 2.088 -6.684 L 1.884 -4.488 Q 2.16 -4.632 2.436 -4.716 Q 2.712 -4.8 3.084 -4.8 Q 3.756 -4.8 4.302 -4.548 Q 4.848 -4.296 5.178 -3.774 Q 5.508 -3.252 5.508 -2.424 Q 5.508 -1.608 5.136 -1.032 Q 4.764 -0.456 4.158 -0.156 Q 3.552 0.144 2.868 0.144 Z " /></symbol><use href="#STIXTwoMathRegular_4248" x="-99.084" y="47.376" width="6.426" height="59.752" fill="black" /></g></g></g><circle cx="91.64103884177653" cy="91.64103884177658" r="2.6999999999999997" style="stroke:black;fill:black;stroke-width:2.0;stroke-dasharray:-;" /><g><g><g><symbol id="STIXTwoMathRegular_3679" viewBox="0 -31.524 6.864 51.216"><path d="M 3.972 0.144 L 3.972 0.144 Q 3.156 0.144 2.496 -0.18 Q 1.836 -0.504 1.458 -1.254 Q 1.08 -2.004 1.08 -3.264 L 1.08 -7.884 L 2.112 -7.884 L 2.112 -3.228 Q 2.112 -2.292 2.358 -1.752 Q 2.604 -1.212 3.024 -0.984 Q 3.444 -0.756 3.972 -0.756 Q 4.512 -0.756 4.944 -0.984 Q 5.376 -1.212 5.628 -1.752 Q 5.88 -2.292 5.88 -3.228 L 5.88 -7.884 L 6.864 -7.884 L 6.864 -3.264 Q 6.864 -2.004 6.486 -1.254 Q 6.108 -0.504 5.454 -0.18 Q 4.8 0.144 3.972 0.144 Z " /></symbol><use href="#STIXTwoMathRegular_3679" x="93.232" y="47.376" width="8.008" height="59.752" fill="black" /><symbol id="STIXTwoMathRegular_4244" viewBox="0 -31.524 3.756 51.216"><path d="M 3.756 0 L 3.756 0 L 2.76 0 L 2.76 -6.348 L 1.212 -6.348 L 1.212 -6.996 Q 1.848 -7.092 2.256 -7.23 Q 2.664 -7.368 3 -7.56 L 3.756 -7.56 Z " /></symbol><use href="#STIXTwoMathRegular_4244" x="102.472" y="47.376" width="4.382" height="59.752" fill="black" /><symbol id="STIXTwoMathRegular_1052" viewBox="0 -31.524 2.196 51.216"><path d="M 2.196 -0.6 L 2.196 -0.6 Q 2.196 -0.324 2.004 -0.114 Q 1.812 0.096 1.452 0.096 Q 1.092 0.096 0.918 -0.108 Q 0.744 -0.312 0.744 -0.612 Q 0.744 -0.924 0.936 -1.146 Q 1.128 -1.368 1.464 -1.368 Q 1.812 -1.368 2.004 -1.14 Q 2.196 -0.912 2.196 -0.6 Z " /></symbol><use href="#STIXTwoMathRegular_1052" x="109.584" y="47.376" width="2.562" height="59.752" fill="black" /><symbol id="STIXTwoMathRegular_4248" viewBox="0 -31.524 5.508 51.216"><path d="M 2.868 0.144 L 2.868 0.144 Q 1.932 0.144 1.32 -0.18 Q 0.708 -0.504 0.3 -0.888 L 0.804 -1.548 Q 1.152 -1.212 1.614 -0.954 Q 2.076 -0.696 2.772 -0.696 Q 3.48 -0.696 3.978 -1.158 Q 4.476 -1.62 4.476 -2.4 Q 4.476 -3.18 4.026 -3.606 Q 3.576 -4.032 2.832 -4.032 Q 2.424 -4.032 2.13 -3.918 Q 1.836 -3.804 1.488 -3.576 L 0.936 -3.924 L 1.2 -7.56 L 5.112 -7.56 L 5.112 -6.684 L 2.088 -6.684 L 1.884 -4.488 Q 2.16 -4.632 2.436 -4.716 Q 2.712 -4.8 3.084 -4.8 Q 3.756 -4.8 4.302 -4.548 Q 4.848 -4.296 5.178 -3.774 Q 5.508 -3.252 5.508 -2.424 Q 5.508 -1.608 5.136 -1.032 Q 4.764 -0.456 4.158 -0.156 Q 3.552 0.144 2.868 0.144 Z " /></symbol><use href="#STIXTwoMathRegular_4248" x="113.014" y="47.376" width="6.426" height="59.752" fill="black" /></g></g></g><circle cx="6.613092715395707e-15" cy="-108.0" r="2.6999999999999997" style="stroke:black;fill:black;stroke-width:2.0;stroke-dasharray:-;" /><circle cx="0.0" cy="-0.0" r="2.6999999999999997" style="stroke:black;fill:black;stroke-width:2.0;stroke-dasharray:-;" /></svg>
