<svg xmlns="http://www.w3.org/2000/svg" xml:lang="en" height="126.559pt" width="235.4883194053333pt" viewBox="-34.833719405333326 -9.626000000000001 235.4883194053333 126.559"><rect x="-34.833719405333326" y="-9.626000000000001" width="235.4883194053333" height="126.559" fill="white" /><circle cx="35.99999999999999" cy="54.0" r="18.0" style="stroke:black;fill:none;stroke-width:2.0;stroke-dasharray:-;" /><circle cx="143.99999999999997" cy="53.99999999999999" r="18.0" style="stroke:black;fill:none;stroke-width:2.0;stroke-dasharray:-;" /><path d="M 0.0,-0.0 L 18.0,-0.0 L 36.0,-0.0" style="stroke:black;fill:none;stroke-width:2.0;stroke-dasharray:-;stroke-linecap:round;stroke-linejoin:round;" /><path d="M 36.0,-0.0 L 35.99999999999999,36.0 L 35.99999999999999,36.0 M 35.999999999999986,72.0 L 35.999999999999986,72.0 L 35.99999999999998,108.0" style="stroke:black;fill:none;stroke-width:2.0;stroke-dasharray:-;stroke-linecap:round;stroke-linejoin:round;" /><path d="M 35.99999999999999,45.0 L 35.999999999999986,54.0" style="stroke:black;fill:none;stroke-width:2.0;stroke-dasharray:-;stroke-linecap:round;stroke-linejoin:round;" /><path d="M 35.999999999999986 61.0 L 33.29999999999999 54.0 L 38.69999999999999 54.0 Z" style="stroke:black;fill:black;stroke-linecap:butt;stroke-linejoin:miter;" /><path d="M 35.99999999999998,108.0 L 17.99999999999998,108.0 L -1.9984014443252818e-14,108.0" style="stroke:black;fill:none;stroke-width:2.0;stroke-dasharray:-;stroke-linecap:round;stroke-linejoin:round;" /><path d="M 143.99999999999997,-0.0 L 162.0,-0.0 L 180.0,-0.0" style="stroke:black;fill:none;stroke-width:2.0;stroke-dasharray:-;stroke-linecap:round;stroke-linejoin:round;" /><path d="M 144.0,-4.408728476930472e-15 L 144.0,35.99999999999999 L 144.0,35.99999999999999 M 143.99999999999997,71.99999999999999 L 143.99999999999997,71.99999999999999 L 143.99999999999997,108.0" style="stroke:black;fill:none;stroke-width:2.0;stroke-dasharray:-;stroke-linecap:round;stroke-linejoin:round;" /><path d="M 147.6,62.99999999999999 L 140.39999999999998,62.99999999999999" style="stroke:black;fill:none;stroke-width:2.0;stroke-dasharray:-;stroke-linecap:round;stroke-linejoin:round;" /><path d="M 144.0,41.39999999999999 L 143.99999999999997,48.599999999999994" style="stroke:black;fill:none;stroke-width:2.0;stroke-dasharray:-;stroke-linecap:round;stroke-linejoin:round;" /><path d="M 147.6,44.99999999999999 L 140.4,44.99999999999999" style="stroke:black;fill:none;stroke-width:2.0;stroke-dasharray:-;stroke-linecap:round;stroke-linejoin:round;" /><path d="M 143.99999999999997,108.0 L 162.0,108.0 L 180.0,108.0" style="stroke:black;fill:none;stroke-width:2.0;stroke-dasharray:-;stroke-linecap:round;stroke-linejoin:round;" /><path d="M 180.0,63.0 L 180.0,54.0 L 180.0,36.0" style="stroke:black;fill:none;stroke-width:2.0;stroke-dasharray:-;stroke-linecap:round;stroke-linejoin:round;" /><path d="M 180.0 70.0 L 177.3 63.0 L 182.7 63.0 Z" style="stroke:black;fill:black;stroke-linecap:butt;stroke-linejoin:miter;" /><g><g><g><symbol id="STIXTwoMathRegular_261" viewBox="0 -31.524 5.664 51.216"><path d="M 1.536 -2.208 L 1.536 -2.208 L 1.536 -2.232 Q 1.104 -2.484 0.858 -2.88 Q 0.612 -3.276 0.612 -3.864 Q 0.612 -4.764 1.224 -5.292 Q 1.836 -5.82 2.784 -5.82 Q 3.18 -5.82 3.48 -5.748 Q 3.78 -5.676 3.948 -5.598 Q 4.116 -5.52 4.116 -5.52 L 5.664 -5.604 L 5.664 -4.956 L 4.536 -4.992 L 4.536 -4.932 Q 4.668 -4.752 4.818 -4.452 Q 4.968 -4.152 4.968 -3.696 Q 4.968 -2.856 4.38 -2.364 Q 3.792 -1.872 2.844 -1.872 Q 2.556 -1.872 2.304 -1.92 Q 2.052 -1.968 1.812 -2.052 Q 1.728 -1.932 1.614 -1.668 Q 1.5 -1.404 1.5 -1.248 Q 1.5 -0.984 1.794 -0.876 Q 2.088 -0.768 2.916 -0.768 Q 3.672 -0.768 4.278 -0.696 Q 4.884 -0.624 5.232 -0.324 Q 5.58 -0.024 5.58 0.66 Q 5.58 1.26 5.286 1.674 Q 4.992 2.088 4.506 2.34 Q 4.02 2.592 3.438 2.706 Q 2.856 2.82 2.292 2.82 Q 1.512 2.82 1.062 2.628 Q 0.612 2.436 0.432 2.13 Q 0.252 1.824 0.252 1.5 Q 0.252 1.2 0.498 0.87 Q 0.744 0.54 1.224 0.072 L 1.224 0.024 Q 0.924 -0.132 0.738 -0.36 Q 0.552 -0.588 0.552 -0.84 Q 0.552 -1.164 0.834 -1.524 Q 1.116 -1.884 1.536 -2.208 Z M 1.524 0.12 L 1.524 0.12 Q 1.332 0.456 1.26 0.678 Q 1.188 0.9 1.188 1.092 Q 1.188 2.136 2.988 2.136 Q 3.696 2.136 4.134 1.956 Q 4.572 1.776 4.77 1.512 Q 4.968 1.248 4.968 0.996 Q 4.968 0.684 4.776 0.51 Q 4.584 0.336 4.278 0.264 Q 3.972 0.192 3.63 0.168 Q 3.288 0.144 2.988 0.144 Q 2.916 0.144 2.88 0.144 Q 2.4 0.132 2.136 0.132 Q 1.872 0.132 1.74 0.126 Q 1.608 0.12 1.524 0.12 Z M 2.7 -5.388 L 2.7 -5.388 Q 2.232 -5.388 1.95 -5.028 Q 1.668 -4.668 1.668 -3.912 Q 1.668 -3.144 1.968 -2.718 Q 2.268 -2.292 2.856 -2.292 Q 3.312 -2.292 3.606 -2.604 Q 3.9 -2.916 3.9 -3.768 Q 3.9 -4.5 3.588 -4.944 Q 3.276 -5.388 2.7 -5.388 Z " /></symbol><use href="#STIXTwoMathRegular_261" x="-34.309" y="20.288" width="6.608" height="59.752" fill="black" /><symbol id="STIXTwoMathRegular_255" viewBox="0 -31.524 5.712 51.216"><path d="M 3.696 -0.744 L 3.696 -0.744 L 3.648 -0.744 Q 3.228 -0.372 2.844 -0.144 Q 2.46 0.084 1.884 0.084 Q 1.188 0.084 0.822 -0.3 Q 0.456 -0.684 0.456 -1.26 Q 0.456 -1.74 0.678 -2.07 Q 0.9 -2.4 1.266 -2.628 Q 1.632 -2.856 2.058 -3.012 Q 2.484 -3.168 2.892 -3.276 Q 3.3 -3.384 3.612 -3.48 L 3.612 -4.008 Q 3.612 -4.788 3.342 -5.118 Q 3.072 -5.448 2.532 -5.448 Q 2.016 -5.448 1.872 -5.232 Q 1.728 -5.016 1.728 -4.476 Q 1.728 -3.924 1.2 -3.924 Q 1.02 -3.924 0.858 -4.062 Q 0.696 -4.2 0.696 -4.5 Q 0.696 -4.836 0.954 -5.136 Q 1.212 -5.436 1.686 -5.628 Q 2.16 -5.82 2.808 -5.82 Q 3.792 -5.82 4.2 -5.364 Q 4.608 -4.908 4.608 -3.972 L 4.608 -1.248 Q 4.608 -0.876 4.692 -0.768 Q 4.776 -0.66 4.968 -0.66 Q 5.136 -0.66 5.274 -0.744 Q 5.412 -0.828 5.532 -0.96 L 5.712 -0.768 Q 5.412 -0.336 5.142 -0.138 Q 4.872 0.06 4.416 0.06 Q 4.02 0.06 3.888 -0.144 Q 3.756 -0.348 3.696 -0.744 Z M 3.612 -1.104 L 3.612 -1.104 L 3.612 -3.084 Q 3.072 -2.952 2.592 -2.772 Q 2.112 -2.592 1.812 -2.304 Q 1.512 -2.016 1.512 -1.548 Q 1.512 -1.104 1.752 -0.84 Q 1.992 -0.576 2.376 -0.576 Q 2.976 -0.576 3.612 -1.104 Z " /></symbol><use href="#STIXTwoMathRegular_255" x="-27.673" y="20.288" width="6.664" height="59.752" fill="black" /><symbol id="STIXTwoMathRegular_263" viewBox="0 -31.524 3.084 51.216"><path d="M 3.084 -0.336 L 3.084 -0.336 L 3.084 0 L 0.384 0 L 0.384 -0.336 Q 0.792 -0.336 0.966 -0.414 Q 1.14 -0.492 1.182 -0.684 Q 1.224 -0.876 1.224 -1.212 L 1.224 -4.56 Q 1.224 -4.944 1.092 -5.034 Q 0.96 -5.124 0.696 -5.124 Q 0.576 -5.124 0.486 -5.112 Q 0.396 -5.1 0.396 -5.1 L 0.396 -5.448 L 1.908 -5.784 L 2.22 -5.784 L 2.22 -1.212 Q 2.22 -0.864 2.268 -0.672 Q 2.316 -0.48 2.502 -0.408 Q 2.688 -0.336 3.084 -0.336 Z M 1.74 -8.076 L 1.74 -8.076 Q 2.052 -8.076 2.238 -7.878 Q 2.424 -7.68 2.424 -7.404 Q 2.424 -7.128 2.238 -6.924 Q 2.052 -6.72 1.74 -6.72 Q 1.44 -6.72 1.248 -6.924 Q 1.056 -7.128 1.056 -7.404 Q 1.056 -7.68 1.242 -7.878 Q 1.428 -8.076 1.74 -8.076 Z " /></symbol><use href="#STIXTwoMathRegular_263" x="-20.953" y="20.288" width="3.598" height="59.752" fill="black" /><symbol id="STIXTwoMathRegular_269" viewBox="0 -31.524 6.66 51.216"><path d="M 5.772 -3.684 L 5.772 -3.684 L 5.772 -1.212 Q 5.772 -0.876 5.826 -0.684 Q 5.88 -0.492 6.072 -0.414 Q 6.264 -0.336 6.66 -0.336 L 6.66 0 L 3.888 0 L 3.888 -0.336 Q 4.32 -0.336 4.506 -0.414 Q 4.692 -0.492 4.734 -0.684 Q 4.776 -0.876 4.776 -1.212 L 4.776 -3.384 Q 4.776 -4.104 4.614 -4.464 Q 4.452 -4.824 4.2 -4.938 Q 3.948 -5.052 3.672 -5.052 Q 3.192 -5.052 2.844 -4.794 Q 2.496 -4.536 2.22 -4.296 L 2.22 -1.212 Q 2.22 -0.876 2.268 -0.684 Q 2.316 -0.492 2.508 -0.414 Q 2.7 -0.336 3.132 -0.336 L 3.132 0 L 0.384 0 L 0.384 -0.336 Q 0.792 -0.336 0.966 -0.414 Q 1.14 -0.492 1.182 -0.684 Q 1.224 -0.876 1.224 -1.212 L 1.224 -4.584 Q 1.224 -4.908 1.092 -5.01 Q 0.96 -5.112 0.72 -5.112 Q 0.564 -5.112 0.48 -5.1 Q 0.396 -5.088 0.396 -5.088 L 0.396 -5.436 L 1.92 -5.784 L 2.196 -5.784 L 2.184 -4.812 L 2.232 -4.812 Q 2.724 -5.244 3.162 -5.532 Q 3.6 -5.82 4.164 -5.82 Q 4.98 -5.82 5.376 -5.268 Q 5.772 -4.716 5.772 -3.684 Z " /></symbol><use href="#STIXTwoMathRegular_269" x="-16.963" y="20.288" width="7.77" height="59.752" fill="black" /><symbol id="STIXTwoMathRegular_1200" viewBox="0 -31.524 7.332 51.216"><path d="M 7.332 -0.264 L 7.332 -0.264 L 6.768 0.312 L 3.924 -2.52 L 1.092 0.312 L 0.528 -0.252 L 3.348 -3.096 L 0.528 -5.928 L 1.104 -6.492 L 3.924 -3.672 L 6.768 -6.492 L 7.332 -5.94 L 4.512 -3.096 Z " /></symbol><use href="#STIXTwoMathRegular_1200" x="-6.826" y="20.288" width="8.554" height="59.752" fill="black" /><symbol id="STIXTwoMathRegular_3308" viewBox="-0.156 -31.524 4.896 51.216"><path d="M 1.248 -1.572 L 1.248 -1.572 L 2.232 -6.3 Q 2.34 -6.768 2.334 -7.038 Q 2.328 -7.308 2.112 -7.416 Q 1.896 -7.524 1.344 -7.524 L 1.416 -7.884 L 4.74 -7.884 L 4.668 -7.524 Q 4.14 -7.524 3.876 -7.416 Q 3.612 -7.308 3.504 -7.038 Q 3.396 -6.768 3.3 -6.3 L 2.316 -1.524 Q 2.28 -1.332 2.256 -1.176 Q 2.232 -1.02 2.232 -0.888 Q 2.232 -0.552 2.43 -0.456 Q 2.628 -0.36 3.192 -0.36 L 3.12 0 L -0.156 0 L -0.084 -0.36 Q 0.408 -0.36 0.654 -0.444 Q 0.9 -0.528 1.02 -0.786 Q 1.14 -1.044 1.248 -1.572 Z " /></symbol><use href="#STIXTwoMathRegular_3308" x="4.418" y="20.288" width="5.712" height="59.752" fill="black" /><symbol id="STIXTwoMathRegular_4442" viewBox="0 -31.524 5.112 51.216"><path d="M 5.112 -6.204 L 5.112 -6.204 L 4.8 -4.188 L 4.44 -4.188 Q 4.428 -4.884 4.122 -5.334 Q 3.816 -5.784 3.156 -5.784 Q 2.748 -5.784 2.514 -5.598 Q 2.28 -5.412 2.28 -5.124 Q 2.28 -4.824 2.508 -4.518 Q 2.736 -4.212 3.072 -3.888 Q 3.408 -3.564 3.744 -3.204 Q 4.08 -2.844 4.308 -2.43 Q 4.536 -2.016 4.536 -1.524 Q 4.536 -0.852 4.014 -0.354 Q 3.492 0.144 2.448 0.144 Q 1.812 0.144 1.422 -0.006 Q 1.032 -0.156 0.936 -0.192 L 0.876 -0.192 L 0.564 0.156 L 0.252 0.156 L 0.588 -2.004 L 0.972 -2.004 Q 1.068 -1.128 1.374 -0.726 Q 1.68 -0.324 2.328 -0.324 Q 2.856 -0.324 3.126 -0.57 Q 3.396 -0.816 3.396 -1.248 Q 3.396 -1.668 3.18 -2.016 Q 2.964 -2.364 2.652 -2.682 Q 2.34 -3 2.022 -3.324 Q 1.704 -3.648 1.488 -4.008 Q 1.272 -4.368 1.272 -4.8 Q 1.272 -5.448 1.782 -5.826 Q 2.292 -6.204 3.072 -6.204 Q 3.6 -6.204 3.936 -6.072 Q 4.272 -5.94 4.428 -5.868 L 4.5 -5.868 L 4.824 -6.204 Z " /></symbol><use href="#STIXTwoMathRegular_4442" x="10.186" y="34.261" width="4.175" height="41.826" fill="black" /></g></g></g><circle cx="-1.9984014443252818e-14" cy="108.0" r="2.6999999999999997" style="stroke:black;fill:black;stroke-width:2.0;stroke-dasharray:-;" /><g><g><g><symbol id="STIXTwoMathRegular_3706" viewBox="0 -31.524 3.78 51.216"><path d="M 2.688 0.144 L 2.688 0.144 Q 1.848 0.144 1.482 -0.384 Q 1.116 -0.912 1.116 -1.764 L 1.116 -4.836 L 0.288 -4.836 L 0.288 -5.556 L 1.164 -5.616 L 1.284 -7.284 L 2.076 -7.284 L 2.076 -5.616 L 3.6 -5.616 L 3.6 -4.836 L 2.076 -4.836 L 2.076 -1.74 Q 2.076 -1.236 2.268 -0.942 Q 2.46 -0.648 2.916 -0.648 Q 3.108 -0.648 3.282 -0.696 Q 3.456 -0.744 3.588 -0.804 L 3.78 -0.072 Q 3.54 0.012 3.27 0.078 Q 3 0.144 2.688 0.144 Z " /></symbol><use href="#STIXTwoMathRegular_3706" x="-10.542" y="75.387" width="4.41" height="59.752" fill="black" /></g></g></g><circle cx="180.0" cy="-0.0" r="2.6999999999999997" style="stroke:black;fill:black;stroke-width:2.0;stroke-dasharray:-;" /><g><g><g><symbol id="STIXTwoMathRegular_3702" viewBox="0 -31.524 5.892 51.216"><path d="M 0.948 2.64 L 0.948 2.64 L 0.948 -5.688 L 1.74 -5.688 L 1.824 -5.028 L 1.86 -5.028 Q 2.244 -5.34 2.694 -5.58 Q 3.144 -5.82 3.72 -5.82 Q 4.392 -5.82 4.878 -5.466 Q 5.364 -5.112 5.628 -4.476 Q 5.892 -3.84 5.892 -2.988 Q 5.892 -1.992 5.55 -1.29 Q 5.208 -0.588 4.662 -0.222 Q 4.116 0.144 3.48 0.144 Q 3.084 0.144 2.694 -0.018 Q 2.304 -0.18 1.884 -0.528 L 1.908 0.48 L 1.908 2.64 Z M 3.3 -0.672 L 3.3 -0.672 Q 3.984 -0.672 4.44 -1.266 Q 4.896 -1.86 4.896 -2.976 Q 4.896 -3.876 4.548 -4.446 Q 4.2 -5.016 3.456 -5.016 Q 3.084 -5.016 2.73 -4.842 Q 2.376 -4.668 1.908 -4.236 L 1.908 -1.26 Q 2.292 -0.936 2.646 -0.804 Q 3 -0.672 3.3 -0.672 Z " /></symbol><use href="#STIXTwoMathRegular_3702" x="186.3" y="-34.923" width="6.874" height="59.752" fill="black" /></g></g></g><g><g><g><symbol id="STIXTwoMathRegular_3350" viewBox="0 -31.524 5.748 51.216"><path d="M 2.4 -5.712 L 2.4 -5.712 L 2.664 -5.712 L 2.1 -3.408 Q 2.016 -3.096 1.926 -2.658 Q 1.836 -2.22 1.836 -1.812 Q 1.836 -1.344 2.028 -1.002 Q 2.22 -0.66 2.772 -0.66 Q 3.384 -0.66 3.828 -0.954 Q 4.272 -1.248 4.554 -1.704 Q 4.836 -2.16 4.974 -2.664 Q 5.112 -3.168 5.112 -3.588 Q 5.112 -3.9 5.004 -4.128 Q 4.896 -4.356 4.746 -4.536 Q 4.596 -4.716 4.488 -4.884 Q 4.38 -5.052 4.38 -5.244 Q 4.38 -5.484 4.512 -5.616 Q 4.644 -5.748 4.836 -5.748 Q 5.244 -5.748 5.496 -5.34 Q 5.748 -4.932 5.748 -4.296 Q 5.748 -3.744 5.61 -3.138 Q 5.472 -2.532 5.196 -1.956 Q 4.92 -1.38 4.512 -0.912 Q 4.104 -0.444 3.576 -0.168 Q 3.048 0.108 2.4 0.108 Q 1.8 0.108 1.464 -0.132 Q 1.128 -0.372 0.99 -0.768 Q 0.852 -1.164 0.852 -1.62 Q 0.852 -2.052 0.936 -2.508 Q 1.02 -2.964 1.116 -3.336 L 1.356 -4.248 Q 1.38 -4.344 1.428 -4.536 Q 1.476 -4.728 1.476 -4.908 Q 1.476 -5.064 1.416 -5.172 Q 1.356 -5.28 1.188 -5.28 Q 1.044 -5.28 0.84 -5.262 Q 0.636 -5.244 0.636 -5.244 L 0.636 -5.58 Z " /></symbol><use href="#STIXTwoMathRegular_3350" x="112.796" y="20.512" width="6.706" height="59.752" fill="black" /></g><g><symbol id="STIXTwoMathRegular_2" viewBox="0 -31.524 0 51.216" /><use href="#STIXTwoMathRegular_2" x="119.11" y="20.512" width="0" height="59.752" fill="black" /></g></g></g><circle cx="180.0" cy="108.0" r="2.6999999999999997" style="stroke:black;fill:black;stroke-width:2.0;stroke-dasharray:-;" /><g><g><g><symbol id="STIXTwoMathRegular_3700" viewBox="0 -31.524 5.484 51.216"><path d="M 0.948 0 L 0.948 0 L 0.948 -5.688 L 1.74 -5.688 L 1.824 -4.872 L 1.86 -4.872 Q 2.268 -5.268 2.712 -5.544 Q 3.156 -5.82 3.78 -5.82 Q 4.632 -5.82 5.058 -5.256 Q 5.484 -4.692 5.484 -3.6 L 5.484 0 L 4.512 0 L 4.512 -3.48 Q 4.512 -4.272 4.266 -4.626 Q 4.02 -4.98 3.468 -4.98 Q 3.024 -4.98 2.676 -4.764 Q 2.328 -4.548 1.908 -4.116 L 1.908 0 Z " /></symbol><use href="#STIXTwoMathRegular_3700" x="186.3" y="74.617" width="6.398" height="59.752" fill="black" /></g></g></g><g><g><g><symbol id="STIXTwoMathRegular_3308" viewBox="-0.156 -31.524 4.896 51.216"><path d="M 1.248 -1.572 L 1.248 -1.572 L 2.232 -6.3 Q 2.34 -6.768 2.334 -7.038 Q 2.328 -7.308 2.112 -7.416 Q 1.896 -7.524 1.344 -7.524 L 1.416 -7.884 L 4.74 -7.884 L 4.668 -7.524 Q 4.14 -7.524 3.876 -7.416 Q 3.612 -7.308 3.504 -7.038 Q 3.396 -6.768 3.3 -6.3 L 2.316 -1.524 Q 2.28 -1.332 2.256 -1.176 Q 2.232 -1.02 2.232 -0.888 Q 2.232 -0.552 2.43 -0.456 Q 2.628 -0.36 3.192 -0.36 L 3.12 0 L -0.156 0 L -0.084 -0.36 Q 0.408 -0.36 0.654 -0.444 Q 0.9 -0.528 1.02 -0.786 Q 1.14 -1.044 1.248 -1.572 Z " /></symbol><use href="#STIXTwoMathRegular_3308" x="189" y="20.287" width="5.712" height="59.752" fill="black" /><symbol id="STIXTwoMathRegular_4442" viewBox="0 -31.524 5.112 51.216"><path d="M 5.112 -6.204 L 5.112 -6.204 L 4.8 -4.188 L 4.44 -4.188 Q 4.428 -4.884 4.122 -5.334 Q 3.816 -5.784 3.156 -5.784 Q 2.748 -5.784 2.514 -5.598 Q 2.28 -5.412 2.28 -5.124 Q 2.28 -4.824 2.508 -4.518 Q 2.736 -4.212 3.072 -3.888 Q 3.408 -3.564 3.744 -3.204 Q 4.08 -2.844 4.308 -2.43 Q 4.536 -2.016 4.536 -1.524 Q 4.536 -0.852 4.014 -0.354 Q 3.492 0.144 2.448 0.144 Q 1.812 0.144 1.422 -0.006 Q 1.032 -0.156 0.936 -0.192 L 0.876 -0.192 L 0.564 0.156 L 0.252 0.156 L 0.588 -2.004 L 0.972 -2.004 Q 1.068 -1.128 1.374 -0.726 Q 1.68 -0.324 2.328 -0.324 Q 2.856 -0.324 3.126 -0.57 Q 3.396 -0.816 3.396 -1.248 Q 3.396 -1.668 3.18 -2.016 Q 2.964 -2.364 2.652 -2.682 Q 2.34 -3 2.022 -3.324 Q 1.704 -3.648 1.488 -4.008 Q 1.272 -4.368 1.272 -4.8 Q 1.272 -5.448 1.782 -5.826 Q 2.292 -6.204 3.072 -6.204 Q 3.6 -6.204 3.936 -6.072 Q 4.272 -5.94 4.428 -5.868 L 4.5 -5.868 L 4.824 -6.204 Z " /></symbol><use href="#STIXTwoMathRegular_4442" x="194.768" y="34.261" width="4.175" height="41.826" fill="black" /></g></g></g><circle cx="0.0" cy="-0.0" r="2.6999999999999997" style="stroke:black;fill:black;stroke-width:2.0;stroke-dasharray:-;" /><g><g><g><symbol id="STIXTwoMathRegular_3690" viewBox="0 -31.524 3.708 51.216"><path d="M 1.104 0 L 1.104 0 L 1.104 -4.836 L 0.348 -4.836 L 0.348 -5.556 L 1.104 -5.616 L 1.104 -6.72 Q 1.104 -7.596 1.512 -8.106 Q 1.92 -8.616 2.748 -8.616 Q 3.024 -8.616 3.27 -8.562 Q 3.516 -8.508 3.708 -8.424 L 3.504 -7.68 Q 3.192 -7.836 2.88 -7.836 Q 2.064 -7.836 2.064 -6.72 L 2.064 -5.616 L 3.264 -5.616 L 3.264 -4.836 L 2.064 -4.836 L 2.064 0 Z " /></symbol><use href="#STIXTwoMathRegular_3690" x="-9.842" y="-31.752" width="4.326" height="59.752" fill="black" /></g></g></g></svg>
